HIERARCHY
ROOT Hips
{
	OFFSET 0.000000 0.000000 0.000000
	CHANNELS 6 Xposition Yposition Zposition Zrotation Yrotation Xrotation 
	JOINT LHipJoint
	{
		OFFSET 0.000000 0.000000 0.000000
		CHANNELS 3 Zrotation Yrotation Xrotation
		JOINT LeftUpLeg
		{
			OFFSET 1.363060 -1.794630 0.839290
			CHANNELS 3 Zrotation Yrotation Xrotation
			JOINT LeftLeg
			{
				OFFSET 2.448110 -6.726130 0.000000
				CHANNELS 3 Zrotation Yrotation Xrotation
				JOINT LeftFoot
				{
					OFFSET 2.562200 -7.039590 0.000000
					CHANNELS 3 Zrotation Yrotation Xrotation
					JOINT LeftToeBase
					{
						OFFSET 0.157640 -0.433110 2.322550
						CHANNELS 3 Zrotation Yrotation Xrotation
						End Site
						{
							OFFSET 0.000000 0.000000 0.000000
						}
					}
				}
			}
		}
	}
	JOINT RHipJoint
	{
		OFFSET 0.000000 0.000000 0.000000
		CHANNELS 3 Zrotation Yrotation Xrotation
		JOINT RightUpLeg
		{
			OFFSET -1.305520 -1.794630 0.839290
			CHANNELS 3 Zrotation Yrotation Xrotation
			JOINT RightLeg
			{
				OFFSET -2.542530 -6.985550 0.000000
				CHANNELS 3 Zrotation Yrotation Xrotation
				JOINT RightFoot
				{
					OFFSET -2.568260 -7.056230 0.000000
					CHANNELS 3 Zrotation Yrotation Xrotation
					JOINT RightToeBase
					{
						OFFSET -0.164730 -0.452590 2.363150
						CHANNELS 3 Zrotation Yrotation Xrotation
						End Site
						{
							OFFSET 0.000000 0.000000 0.000000
						}
					}
				}
			}
		}
	}
}
MOTION
Frames: 28
Frame Time: 0.008333
-10.438821 16.776966 1.179117 -29.623304 83.957420 -6.943711 -11.652763 2.207516 -2.611863 -4.745910 5.377426 -4.586731 -1.104685 1.318876 25.713601 0.077080 -2.447866 3.950880 -0.372100 -0.000000 -77.639700 7.732831 -0.286805 1.540879 9.914740 7.295609 -43.675282 3.027881 -0.988480 17.284635 0.148772 0.716209 5.111382 -0.441300 0.000000 -36.726100
-10.255816 16.765610 1.185303 -35.605078 84.150209 -13.023223 -11.867662 2.146612 -2.589142 -3.869629 5.303301 -5.245740 -0.872586 1.479442 27.963675 0.117147 -2.721972 5.361726 -0.516800 -0.000000 -79.141300 7.591358 -0.428454 1.385544 10.514705 7.356506 -43.891858 2.961196 -1.269953 19.878122 0.046977 0.383307 4.064880 -0.498300 0.000000 -34.967100
-10.076986 16.760351 1.190845 -42.233253 84.355045 -19.775009 -12.112985 2.056383 -2.578060 -2.964874 5.271907 -6.011514 -0.625255 1.633891 30.328178 0.178213 -2.995171 7.010780 -0.700100 0.000001 -79.806800 7.426731 -0.580549 1.199197 11.178799 7.272190 -43.896174 2.926641 -1.503117 22.108751 -0.053546 0.068663 2.893223 -0.538400 -0.000000 -33.780900
-9.902098 16.760594 1.196964 -49.312798 84.553476 -26.998090 -12.380792 1.942108 -2.572364 -2.074342 5.264719 -6.871648 -0.373590 1.778556 32.768003 0.265871 -3.206192 8.833288 -0.908300 -0.000000 -79.440300 7.244165 -0.737544 0.986862 11.877883 7.043089 -43.697578 2.923882 -1.686980 23.953568 -0.151878 -0.224307 1.632185 -0.560200 -0.000000 -33.168100
-9.730770 16.765442 1.204744 -56.678087 84.732304 -34.521027 -12.659938 1.810648 -2.566841 -1.230829 5.270252 -7.817760 -0.130048 1.912388 35.253349 0.381491 -3.294052 10.735070 -1.114100 0.000000 -77.916900 7.051789 -0.892114 0.755700 12.584013 6.680083 -43.313423 2.948474 -1.822591 25.413185 -0.247966 -0.497250 0.330598 -0.564900 0.000000 -33.071300
-9.562458 16.774053 1.215415 -64.055223 84.893344 -42.064105 -12.930375 1.673207 -2.557878 -0.485461 5.268736 -8.834939 0.092598 2.036872 37.751316 0.522391 -3.184466 12.600330 -1.272800 0.000000 -75.207100 6.867295 -1.030749 0.510163 13.252437 6.186134 -42.777606 2.991513 -1.914680 26.523341 -0.339335 -0.737508 -0.964047 -0.551200 0.000001 -33.383100
-9.396627 16.785615 1.229654 -71.322863 85.042514 -49.499650 -13.177044 1.538250 -2.544391 0.132995 5.254321 -9.916341 0.286161 2.155071 40.238172 0.682139 -2.819296 14.310513 -1.334600 -0.000000 -71.441500 6.704218 -1.145464 0.258164 13.849054 5.580044 -42.122566 3.043795 -1.968105 27.321493 -0.424629 -0.944856 -2.196402 -0.522900 0.000000 -33.972700
-9.232532 16.799444 1.247332 -78.508892 85.177092 -56.844866 -13.394213 1.409462 -2.526143 0.624021 5.232511 -11.065352 0.448259 2.270502 42.695499 0.853138 -2.163923 15.760422 -1.257300 -0.000001 -66.915300 6.566855 -1.236314 0.012007 14.360327 4.902021 -41.378220 3.097695 -1.986945 27.838359 -0.504248 -1.134875 -3.307620 -0.487699 -0.000000 -34.709500
-9.069668 16.815203 1.268499 -85.503820 85.305614 -63.981780 -13.570325 1.293335 -2.504090 0.962720 5.194892 -12.271893 0.579926 2.386161 45.091458 1.029620 -1.188400 16.876567 -1.009100 0.000000 -62.050600 6.467296 -1.297901 -0.222592 14.757591 4.175263 -40.584138 3.144431 -1.978876 28.132320 -0.575191 -1.302550 -4.260860 -0.449501 0.000000 -35.458700
-8.907614 16.832735 1.292361 -92.290836 85.424728 -70.884457 -13.703125 1.190662 -2.478993 1.151920 5.141718 -13.531837 0.686140 2.503255 47.399788 1.207643 0.098368 17.616833 -0.586500 0.000000 -57.295399 6.407656 -1.332558 -0.437136 15.036122 3.438890 -39.770571 3.178544 -1.950254 28.248547 -0.636780 -1.456899 -5.026205 -0.414400 0.000000 -36.125299
-8.746111 16.852124 1.317942 -98.807019 85.530459 -77.482019 -13.792086 1.100092 -2.452253 1.198669 5.072013 -14.837655 0.772672 2.621208 49.593902 1.384807 1.657419 17.964477 -0.012500 0.000000 -53.004601 6.387982 -1.343838 -0.625763 15.198493 2.728291 -38.963469 3.196783 -1.907635 28.231479 -0.688563 -1.603992 -5.591626 -0.386799 -0.000000 -36.659800
-8.585082 16.873661 1.344041 -104.953024 85.619132 -83.671027 -13.839430 1.018201 -2.426089 1.116233 4.987295 -16.178838 0.844776 2.738085 51.649943 1.559152 3.421592 17.919611 0.666300 0.000001 -49.366200 6.405004 -1.337028 -0.785385 15.256089 2.072374 -38.180659 3.198591 -1.857022 28.119291 -0.730640 -1.747586 -5.961696 -0.369200 0.000000 -37.058400
-8.424620 16.897731 1.369380 -110.611531 85.686758 -89.332623 -13.850221 0.940185 -2.402676 0.925753 4.892301 -17.544619 0.906392 2.851080 53.546510 1.728207 5.301189 17.494947 1.386300 -0.000000 -46.400900 6.452012 -1.319101 -0.914893 15.228561 1.492847 -37.431282 3.186012 -1.803045 27.939647 -0.763834 -1.890149 -6.154178 -0.362800 0.000000 -37.355800
-8.265021 16.924734 1.392840 -115.649545 85.735112 -94.339276 -13.830835 0.861254 -2.385660 0.647818 4.794234 -18.917803 0.959552 2.957381 55.261689 1.888711 7.196983 16.716218 2.077900 0.000000 -44.017300 6.520939 -1.296206 -1.018189 15.137088 0.996902 -36.713725 3.162743 -1.749391 27.713253 -0.788669 -2.027964 -6.198193 -0.366300 0.000000 -37.606300
-8.106557 16.955018 1.413500 -119.967449 85.766980 -98.597817 -13.789051 0.777333 -2.377385 0.306955 4.700717 -20.282260 1.004601 3.054372 56.776073 2.036655 9.008817 15.624635 2.676100 -0.000001 -42.070200 6.602225 -1.274443 -1.100459 15.005943 0.583195 -36.019391 3.133754 -1.697695 27.447742 -0.805912 -2.156738 -6.125973 -0.378200 -0.000000 -37.874900
-7.949565 16.988827 1.430768 -123.509306 85.787251 -102.062217 -13.732144 0.685808 -2.379488 -0.074903 4.617875 -21.621276 1.040304 3.140040 58.071608 2.167471 10.646948 14.275786 3.130800 0.000000 -40.408001 6.687246 -1.258112 -1.169106 14.856679 0.240085 -35.332971 3.104065 -1.648183 27.141897 -0.816041 -2.270692 -5.968077 -0.396000 -0.000000 -38.224300
-7.794214 17.026170 1.444384 -126.278494 85.801358 -104.745401 -13.666065 0.585882 -2.392303 -0.478898 4.549204 -22.919550 1.064457 3.213058 59.134646 2.276676 12.041144 12.737945 3.414199 0.000000 -38.907100 6.769405 -1.249599 -1.231981 14.706186 -0.050662 -34.636955 3.078103 -1.599895 26.787031 -0.819168 -2.363825 -5.748683 -0.417400 0.000001 -38.707001
-7.640595 17.066926 1.454521 -128.344428 85.813657 -106.725607 -13.594151 0.478642 -2.414520 -0.891535 4.495062 -24.166399 1.074532 3.272645 59.957506 2.360291 13.145599 11.082354 3.522700 0.000000 -37.435799 6.845520 -1.249450 -1.295678 14.565125 -0.310193 -33.914081 3.058951 -1.551115 26.369878 -0.815223 -2.431836 -5.482287 -0.440900 0.000000 -39.361300
-7.488646 17.110651 1.461583 -129.827130 85.827765 -108.129383 -13.518002 0.366043 -2.443918 -1.304976 4.452449 -25.354583 1.068408 3.318432 60.537911 2.416263 13.944576 9.385428 3.475900 0.000000 -35.960599 6.914977 -1.256437 -1.365794 14.436595 -0.560345 -33.150702 3.048236 -1.500024 25.876780 -0.803765 -2.471005 -5.173742 -0.465400 0.000000 -40.204000
-7.338117 17.156823 1.466247 -130.889451 85.845894 -109.123919 -13.436895 0.251137 -2.477019 -1.717275 4.416146 -26.482787 1.044702 3.350332 60.880241 2.444304 14.447862 7.709580 3.307600 0.000000 -34.409600 6.980082 -1.268420 -1.444744 14.317178 -0.818573 -32.337478 3.045783 -1.444806 25.295080 -0.784513 -2.480712 -4.818423 -0.490800 -0.000000 -41.232700
-7.188614 17.204681 1.469252 -131.721850 85.870724 -109.899350 -13.348970 0.137267 -2.509584 -2.132618 4.378176 -27.554136 1.003088 3.368306 60.993105 2.447124 14.691497 6.110430 3.060099 0.000000 -32.810100 7.044852 -1.282424 -1.533080 14.197379 -1.099077 -31.473745 3.049976 -1.384414 24.619699 -0.756984 -2.459934 -4.406822 -0.517200 -0.000000 -42.417400
-7.039667 17.253448 1.471303 -132.514422 85.904371 -110.643612 -13.251679 0.027632 -2.537050 -2.558826 4.329449 -28.575967 0.944151 3.372449 60.888861 2.429610 14.728110 4.621204 2.772600 0.000001 -31.170200 7.113898 -1.295509 -1.628753 14.064758 -1.408662 -30.565523 3.058092 -1.318460 23.852186 -0.721078 -2.409438 -3.927649 -0.544700 0.000001 -43.708300
-6.890787 17.302288 1.472931 -133.436972 85.948122 -111.522114 -13.142911 -0.075040 -2.555144 -3.004282 4.261561 -29.556150 0.869150 3.362904 60.580701 2.398446 14.619996 3.256966 2.476701 -0.000000 -29.519900 7.191103 -1.305412 -1.728012 13.906359 -1.746618 -29.622409 3.066798 -1.247192 23.000353 -0.677256 -2.332048 -3.370516 -0.573300 0.000000 -45.042900
-6.741447 17.350409 1.474482 -134.628495 86.002863 -112.668255 -13.020991 -0.168765 -2.559838 -3.477096 4.165992 -30.503168 0.779628 3.339728 60.080414 2.361187 14.430951 2.015555 2.193799 -0.000000 -27.905900 7.279181 -1.310589 -1.826336 13.711648 -2.106770 -28.659457 3.072787 -1.171807 22.080965 -0.626492 -2.230994 -2.731416 -0.602500 0.000000 -46.353201
-6.591166 17.397116 1.475963 -136.178368 86.066677 -114.163965 -12.885418 -0.252726 -2.547891 -3.982027 4.035792 -31.424499 0.677110 3.302889 59.397083 2.325118 14.217790 0.880459 1.934700 0.000000 -26.364300 7.378710 -1.310705 -1.919227 13.475203 -2.478514 -27.694750 3.073534 -1.094123 21.116630 -0.570424 -2.110772 -2.014249 -0.631200 -0.000000 -47.578700
-6.439444 17.441791 1.477059 -138.117467 86.133979 -116.032918 -12.737477 -0.326975 -2.514806 -4.516132 3.865219 -32.327652 0.563175 3.251992 58.536277 2.296356 14.023905 -0.169666 1.702400 -0.000000 -24.930700 7.487511 -1.307559 -2.001712 13.201284 -2.850411 -26.748867 3.067998 -1.016255 20.134397 -0.511045 -1.976320 -1.230930 -0.658100 -0.000000 -48.672500
-6.286545 17.484021 1.477524 -140.407176 86.203061 -118.242236 -12.576910 -0.392557 -2.467027 -5.077181 3.658603 -33.191991 0.438041 3.187245 57.492329 2.278685 13.875196 -1.160982 1.493300 -0.000000 -23.631900 7.604174 -1.299929 -2.075698 12.886864 -3.202605 -25.812836 3.053950 -0.939884 19.149614 -0.452402 -1.843170 -0.399559 -0.682999 -0.000000 -49.645300
-6.131837 17.523356 1.476551 -142.957322 86.261623 -120.692915 -12.408489 -0.451012 -2.397395 -5.648514 3.413084 -34.027897 0.303407 3.107449 56.264746 2.273972 13.778250 -2.104594 1.303700 0.000000 -22.481900 7.721943 -1.293048 -2.137017 12.554789 -3.531577 -24.913506 3.034088 -0.867145 18.194158 -0.396012 -1.713046 0.452751 -0.704600 -0.000000 -50.482600
